<?xml version="1.0" encoding="iso-8859-1"?>
<!-- Generator: Adobe Illustrator 19.0.0, SVG Export Plug-In . SVG Version: 6.00 Build 0)  -->
<svg xmlns="http://www.w3.org/2000/svg" xmlns:xlink="http://www.w3.org/1999/xlink" version="1.1" id="Layer_1" x="0px" y="0px" viewBox="0 0 512 512" style="enable-background:new 0 0 512 512;" xml:space="preserve" width="512px" height="512px">
<g>
	<g>
		<path d="M512,10.656C512,4.766,507.219,0,501.328,0c-2.938,0-5.609,1.188-7.531,3.109l-94.688,94.688    C361.266,63.531,311.078,42.656,256,42.656C138.172,42.656,42.672,138.172,42.672,256c0,55.062,20.875,105.266,55.125,143.109    L3.125,493.781C1.188,495.719,0,498.375,0,501.328C0,507.219,4.781,512,10.672,512c2.938,0,5.609-1.203,7.531-3.125l94.688-94.688    c37.844,34.266,88.031,55.141,143.109,55.141c117.828,0,213.328-95.516,213.328-213.328c0-55.078-20.859-105.281-55.125-143.125    l94.672-94.672C510.812,16.281,512,13.609,512,10.656z M79.078,330.719C69.078,307.062,64,281.922,64,256    c0-25.938,5.078-51.078,15.078-74.734c9.672-22.859,23.516-43.391,41.156-61.047c17.641-17.625,38.172-31.484,61.031-41.141    C204.922,69.062,230.078,64,256,64s51.078,5.062,74.734,15.078c19.578,8.281,37.453,19.641,53.281,33.828L112.906,384    C98.734,368.188,87.359,350.312,79.078,330.719z M432.922,181.266C442.922,204.922,448,230.062,448,256    c0,25.922-5.078,51.062-15.078,74.719c-9.672,22.859-23.516,43.406-41.156,61.031c-17.641,17.641-38.172,31.5-61.031,41.156    C307.078,442.922,281.922,448,256,448s-51.078-5.078-74.734-15.094c-19.578-8.281-37.453-19.641-53.281-33.812l271.109-271.109    C413.266,143.797,424.641,161.672,432.922,181.266z" fill="#DE8496"/>
	</g>
</g>
<g>
</g>
<g>
</g>
<g>
</g>
<g>
</g>
<g>
</g>
<g>
</g>
<g>
</g>
<g>
</g>
<g>
</g>
<g>
</g>
<g>
</g>
<g>
</g>
<g>
</g>
<g>
</g>
<g>
</g>
</svg>
